<?xml version="1.0" standalone="no"?>
<!DOCTYPE svg PUBLIC "-//W3C//DTD SVG 20010904//EN"
 "http://www.w3.org/TR/2001/REC-SVG-20010904/DTD/svg10.dtd">
<svg version="1.0" xmlns="http://www.w3.org/2000/svg"
 width="2828.000000pt" height="2828.000000pt" viewBox="0 0 2828.000000 2828.000000"
 preserveAspectRatio="xMidYMid meet">

<g transform="translate(0.000000,2828.000000) scale(0.100000,-0.100000)"
fill="#000000" stroke="none">
<path d="M13570 28271 c0 -6 5 -13 10 -16 6 -4 8 -9 6 -13 -2 -4 233 -7 522
-7 l527 0 1 23 2 22 -534 0 c-327 0 -534 -4 -534 -9z"/>
<path d="M17304 22970 c-39 -4 -81 -11 -93 -15 -12 -3 -34 -8 -49 -10 -107
-15 -535 -142 -637 -190 -17 -7 -50 -22 -75 -33 -95 -41 -249 -118 -345 -172
-55 -31 -127 -72 -159 -90 -88 -48 -246 -153 -286 -188 -19 -18 -49 -38 -65
-46 -17 -8 -56 -36 -86 -63 -31 -26 -107 -88 -170 -138 -224 -176 -572 -544
-692 -731 -56 -88 -127 -205 -127 -209 0 -2 -34 -61 -75 -131 -96 -162 -171
-312 -220 -439 -21 -55 -41 -104 -46 -110 -16 -22 -100 -250 -119 -323 -18
-72 -42 -192 -60 -307 -5 -27 -11 -63 -14 -80 -22 -118 -30 -237 -32 -495 -2
-175 1 -312 6 -335 34 -133 56 -170 123 -209 62 -36 89 -39 362 -38 269 0 387
12 564 57 127 33 307 90 416 132 92 36 487 234 516 259 8 8 19 14 22 14 20 0
234 152 298 211 20 19 78 72 130 119 230 210 530 527 658 695 56 73 127 179
171 255 24 41 55 90 68 108 29 38 73 116 104 182 53 116 72 160 94 218 14 35
33 81 44 103 28 53 59 139 144 394 134 399 146 486 147 1018 1 280 -2 342 -16
397 -22 85 -71 142 -155 181 -30 13 -248 19 -346 9z m221 -160 c29 -11 59 -70
91 -180 29 -101 27 -328 -4 -435 -31 -107 -100 -248 -182 -370 -149 -223 -200
-328 -200 -420 0 -41 -23 -122 -48 -170 -11 -23 -94 -112 -189 -205 -235 -228
-303 -336 -385 -605 -14 -45 -30 -79 -36 -78 -6 2 -44 -12 -84 -31 -40 -18
-100 -41 -133 -50 -33 -9 -73 -21 -90 -27 -16 -6 -50 -15 -75 -20 -67 -14
-137 -54 -267 -155 -134 -104 -205 -175 -259 -260 -20 -32 -40 -61 -44 -64 -4
-3 -10 -14 -14 -25 -6 -21 -88 -115 -99 -115 -4 0 -7 9 -7 20 0 11 -5 20 -11
20 -11 0 -79 -70 -79 -82 0 -5 -14 -8 -31 -8 -19 0 -37 -7 -45 -17 -13 -17
-14 -16 -20 5 -5 17 -9 20 -15 11 -12 -21 -96 -25 -274 -15 -68 3 -102 2 -106
-6 -5 -8 -12 -6 -24 5 -9 10 -32 17 -51 17 -19 0 -34 4 -34 10 0 5 -12 13 -27
17 -51 12 -145 66 -153 87 -13 33 -74 96 -92 96 -12 0 -15 5 -11 16 3 8 -4 25
-16 37 -18 20 -19 25 -7 42 9 14 12 45 11 95 -2 59 -8 85 -29 123 -14 26 -26
55 -26 64 0 14 -2 14 -14 -3 -14 -18 -15 -18 -21 -1 -4 9 -4 25 0 35 4 9 9 41
11 70 7 85 54 261 91 332 7 14 13 31 13 38 0 6 5 12 10 12 6 0 10 7 10 15 0
14 159 256 187 283 7 7 17 22 23 31 12 24 120 166 255 335 311 393 317 398
448 437 198 58 391 202 569 426 77 96 113 124 227 174 269 119 298 135 391
210 175 142 239 174 463 229 237 58 346 71 402 50z m-1571 -552 c-66 -113
-292 -315 -419 -373 -74 -34 -158 -65 -164 -60 -9 9 53 66 169 153 63 48 145
111 181 139 134 107 256 180 233 141z m1650 -450 c-10 -67 -103 -433 -136
-538 -43 -134 -65 -186 -190 -433 -184 -369 -183 -367 -367 -612 -191 -254
-254 -328 -451 -526 -205 -205 -335 -312 -569 -467 -186 -122 -561 -304 -846
-409 -46 -17 -172 -25 -181 -12 -7 13 -44 -9 -44 -25 0 -9 -21 -18 -57 -24
-71 -13 -585 -15 -617 -3 -20 8 -23 19 -34 124 -20 187 -15 412 12 619 13 101
27 209 30 240 7 64 23 114 34 104 4 -4 8 -76 8 -159 1 -119 5 -161 19 -191 45
-105 158 -242 229 -278 22 -11 61 -21 90 -21 59 -2 257 13 268 19 4 3 70 9
145 14 122 7 153 13 262 49 140 47 278 115 339 166 22 20 62 68 89 108 26 40
66 92 89 117 23 25 53 64 67 86 14 23 38 51 54 63 15 12 57 45 92 72 106 83
159 103 486 184 222 56 242 74 316 294 30 92 81 213 123 296 71 139 72 140
219 290 82 82 159 168 172 190 13 22 49 112 80 200 31 88 73 189 93 225 19 36
57 105 84 155 72 132 104 160 92 83z m-2113 -2231 c-13 -13 -26 -3 -16 12 3 6
11 8 17 5 6 -4 6 -10 -1 -17z m-31 -17 c0 -5 -7 -10 -16 -10 -8 0 -12 5 -9 10
3 6 10 10 16 10 5 0 9 -4 9 -10z m-297 -180 c-13 -11 -122 -32 -133 -25 -18
11 -10 25 15 25 14 0 25 5 25 11 0 5 8 9 18 7 9 -1 23 1 30 5 7 5 12 3 13 -5
0 -7 5 -2 11 12 l10 25 9 -24 c5 -14 6 -27 2 -31z m-728 30 c3 -5 1 -10 -4
-10 -6 0 -11 5 -11 10 0 6 2 10 4 10 3 0 8 -4 11 -10z m25 -40 c0 -5 -4 -10
-10 -10 -5 0 -10 5 -10 10 0 6 5 10 10 10 6 0 10 -4 10 -10z m539 -10 c-7 -5
-19 -6 -26 -3 -11 5 -12 8 -2 13 7 5 19 6 26 3 11 -5 12 -8 2 -13z m-477 -30
c7 -11 23 -20 36 -20 13 0 21 -4 18 -9 -11 -17 -96 19 -96 40 0 17 30 9 42
-11z m246 2 c2 -7 -5 -12 -17 -12 -14 0 -19 5 -14 15 6 17 25 15 31 -3z"/>
<path d="M16712 22300 c-56 -34 -58 -51 -39 -248 10 -98 17 -204 17 -237 0
-87 17 -177 37 -195 10 -10 42 -27 72 -39 l54 -23 67 26 c107 42 104 35 109
270 6 391 -26 466 -204 466 -62 0 -87 -4 -113 -20z"/>
<path d="M16246 21709 c-23 -18 -26 -28 -26 -77 1 -31 9 -79 18 -107 14 -40
26 -56 66 -82 66 -45 107 -44 152 1 30 30 34 40 34 85 0 98 -43 162 -124 186
-66 20 -88 19 -120 -6z m84 -74 c6 -8 9 -19 5 -24 -7 -12 12 -51 25 -51 5 0 7
7 4 15 -4 8 -1 15 5 15 6 0 11 -7 11 -15 0 -8 6 -24 12 -35 10 -15 10 -22 0
-32 -24 -24 -92 71 -92 131 0 15 15 14 30 -4z"/>
<path d="M15667 21100 c-44 -38 -58 -80 -87 -262 -13 -81 -20 -176 -20 -258 0
-147 7 -163 75 -176 63 -11 161 0 186 21 31 28 57 90 64 155 4 30 13 84 20
120 8 36 15 124 17 197 3 121 1 134 -18 160 -31 42 -77 64 -142 70 -55 5 -61
4 -95 -27z m148 -66 c17 -13 20 -25 18 -97 -2 -105 -48 -414 -63 -432 -20 -24
-77 -30 -105 -11 -23 15 -25 22 -25 102 0 80 30 309 50 383 5 18 17 42 26 52
21 23 71 24 99 3z"/>
<path d="M15000 20809 c-106 -42 -145 -208 -138 -579 3 -174 7 -212 24 -255
l20 -50 88 -3 c49 -2 93 1 99 7 23 23 36 143 37 331 0 133 5 217 15 265 8 39
15 88 15 110 1 33 3 36 10 19 18 -46 30 -36 30 25 0 58 -2 63 -40 101 -36 36
-45 40 -87 39 -27 0 -59 -5 -73 -10z m114 -106 c-3 -27 -12 -91 -19 -143 -14
-91 -27 -232 -43 -445 l-7 -100 -35 -3 c-19 -1 -41 2 -49 7 -32 21 -43 412
-15 549 20 98 35 142 50 142 6 0 17 6 24 14 11 15 35 22 77 25 21 1 22 -2 17
-46z"/>
<path d="M17795 18738 c-60 -23 -53 -18 -61 -56 -6 -30 -5 -32 22 -32 40 -1
217 -53 221 -66 2 -6 -27 -16 -69 -23 -40 -7 -111 -21 -158 -32 -258 -59 -248
-58 -460 -60 -96 -1 -185 -6 -198 -10 -22 -8 -78 11 -92 31 -19 27 -124 42
-146 20 -16 -16 -70 0 -99 30 l-26 27 38 25 c21 14 61 28 88 32 80 12 136 28
133 38 -2 5 -17 17 -33 26 -17 9 -33 21 -36 25 -9 12 -172 24 -294 21 -83 -2
-140 -10 -232 -33 -115 -28 -498 -152 -683 -221 -47 -17 -137 -49 -200 -71
-63 -21 -128 -44 -145 -50 -424 -155 -764 -270 -935 -315 -56 -15 -269 -22
-289 -10 -6 4 -37 9 -68 12 -63 5 -195 33 -203 43 -3 4 -39 17 -80 31 -41 13
-80 27 -86 32 -6 4 -39 15 -75 24 -35 9 -68 20 -74 24 -5 4 -39 18 -75 30 -36
12 -87 32 -115 45 -27 12 -81 35 -120 50 -38 15 -83 33 -100 40 -86 37 -109
45 -125 45 -10 0 -20 4 -22 8 -1 4 -32 18 -68 31 -36 12 -74 26 -85 31 -79 34
-430 150 -454 150 -9 0 -21 4 -26 9 -9 7 -96 29 -290 73 -47 10 -193 13 -650
13 -324 0 -595 -3 -602 -8 -6 -4 -14 -3 -18 3 -4 6 -13 7 -23 1 -20 -10 -147
-26 -177 -23 -18 2 -53 -9 -120 -39 -11 -5 -31 -9 -45 -8 -14 1 -47 -6 -75
-16 -95 -34 -103 -36 -137 -40 -16 -1 -29 -3 -30 -4 -2 -2 -14 -5 -28 -7 -13
-2 -33 -13 -45 -23 -11 -10 -25 -17 -31 -14 -6 2 -17 -3 -24 -12 -7 -8 -22
-15 -34 -15 -11 0 -41 -11 -66 -24 -69 -37 -108 -55 -164 -72 -67 -22 -165
-62 -216 -89 -14 -8 -51 -26 -82 -40 -31 -15 -65 -36 -74 -46 -9 -11 -24 -19
-33 -19 -9 0 -43 -18 -76 -40 -32 -21 -73 -45 -90 -51 -16 -7 -39 -20 -50 -29
-11 -9 -40 -28 -65 -41 -25 -13 -57 -33 -71 -44 -14 -11 -36 -27 -49 -35 -12
-8 -28 -21 -36 -27 -7 -7 -16 -13 -19 -13 -9 0 -182 -130 -218 -164 -15 -14
-31 -26 -35 -26 -5 0 -19 -13 -32 -30 -14 -16 -31 -29 -37 -30 -7 0 -13 -4
-13 -9 0 -5 -6 -16 -13 -23 -154 -163 -377 -409 -492 -543 -38 -44 -106 -118
-152 -165 -46 -46 -83 -90 -83 -96 0 -7 -4 -14 -8 -16 -22 -9 -212 -322 -296
-488 -27 -52 -67 -126 -90 -165 -22 -38 -51 -95 -64 -125 -66 -152 -107 -254
-137 -345 -19 -55 -50 -145 -70 -200 -60 -168 -74 -215 -69 -229 3 -8 1 -17
-4 -20 -5 -3 -6 -23 -2 -44 4 -21 4 -47 0 -58 -4 -10 -10 -77 -13 -149 -6
-119 -26 -258 -40 -282 -3 -5 -8 -47 -11 -93 -6 -83 -12 -120 -42 -270 -9 -41
-17 -95 -18 -120 -2 -25 -8 -58 -15 -74 -8 -20 -8 -32 -1 -41 7 -9 5 -16 -6
-26 -14 -12 -158 -15 -830 -19 l-812 -5 -27 -25 c-58 -54 -55 21 -55 -1252 l0
-1173 25 -38 c47 -68 41 -67 467 -67 224 0 398 4 418 10 19 5 49 26 67 47 l33
37 0 364 0 364 423 -3 423 -4 42 33 c56 45 72 69 72 111 0 59 13 25 15 -41 4
-77 11 -171 25 -303 7 -64 7 -167 2 -289 -6 -142 -5 -205 4 -255 7 -36 13 -83
14 -104 0 -34 -2 -37 -19 -27 -11 5 -23 24 -26 42 -4 18 -14 42 -21 53 -8 10
-17 41 -20 68 -7 50 -42 114 -59 106 -12 -5 -13 -250 -3 -444 6 -124 32 -273
63 -360 29 -85 84 -272 91 -310 3 -22 12 -53 19 -70 7 -16 23 -64 35 -105 61
-210 111 -354 187 -545 47 -115 94 -239 105 -275 74 -237 204 -559 326 -805
41 -82 84 -173 96 -200 30 -72 299 -544 425 -748 20 -31 41 -65 46 -75 11 -19
85 -127 228 -332 52 -74 119 -170 148 -213 51 -74 72 -104 152 -211 17 -24 39
-54 47 -66 8 -12 57 -74 107 -138 51 -64 129 -164 173 -222 139 -180 405 -459
650 -681 69 -62 127 -115 130 -118 20 -23 139 -117 205 -163 206 -143 433
-262 595 -310 36 -11 94 -28 130 -39 134 -42 194 -50 410 -56 320 -8 434 4
735 78 266 65 329 84 495 149 58 23 119 46 135 52 50 17 270 102 320 123 50
21 368 118 585 178 214 59 426 88 695 92 247 4 335 -4 549 -51 350 -78 579
-145 816 -241 207 -84 490 -193 540 -209 173 -55 586 -140 800 -164 326 -37
751 38 1107 196 221 98 456 274 827 618 102 96 368 392 466 520 25 32 63 80
85 106 34 40 61 74 152 190 6 8 31 40 55 70 25 30 104 145 177 255 163 244
248 367 321 465 58 77 108 160 178 290 22 41 55 101 74 132 19 31 61 110 93
175 31 65 80 165 108 223 28 58 68 133 89 168 40 66 126 242 191 392 83 191
140 351 187 520 5 19 25 85 44 145 58 184 69 235 62 293 -21 178 -166 276
-517 348 -181 37 -261 66 -347 126 -80 56 -100 78 -132 143 -44 88 -121 170
-226 238 -56 37 -106 80 -135 115 -58 72 -59 74 -104 207 -51 151 -104 263
-173 359 -64 89 -132 224 -182 359 -18 48 -37 87 -41 87 -5 0 -9 9 -9 20 0 11
-5 20 -11 20 -5 0 -8 4 -4 9 3 5 1 12 -4 15 -5 3 -12 27 -15 53 -18 129 -44
201 -90 240 -14 13 -26 31 -26 41 0 9 -12 62 -26 117 -15 55 -30 118 -34 140
-4 22 -12 54 -18 70 -12 35 -23 483 -11 490 4 3 5 14 2 24 -4 16 3 20 39 26
32 6 53 18 81 47 l38 40 -3 328 -3 329 -29 30 c-35 37 -80 51 -161 51 -95 0
-104 5 -103 53 0 23 0 71 -2 108 -1 36 5 92 14 125 27 101 44 271 39 392 -6
140 8 223 53 319 19 40 34 78 34 83 0 6 4 10 8 10 4 0 14 16 21 35 7 20 49 73
93 118 149 152 196 228 292 475 38 98 116 200 274 357 103 104 155 181 258
381 58 112 72 149 64 162 -5 10 -10 12 -10 5 0 -7 -9 -13 -20 -13 -10 0 -42
-13 -70 -28 -56 -31 -102 -86 -176 -214 -36 -61 -84 -118 -181 -218 -73 -74
-133 -137 -133 -141 0 -4 -14 -23 -30 -41 -55 -60 -117 -181 -165 -323 -25
-77 -58 -159 -72 -183 -13 -24 -66 -82 -116 -130 -141 -134 -154 -149 -197
-220 -29 -50 -42 -85 -49 -137 -6 -39 -15 -84 -20 -102 -5 -18 -9 -69 -9 -114
0 -61 -4 -86 -16 -97 -14 -15 -17 -14 -31 3 -13 17 -14 57 -10 270 2 138 5
264 5 280 0 19 17 57 46 100 l46 70 -5 125 c-3 69 -6 127 -6 129 -1 2 -22 1
-48 -1 -75 -7 -159 -52 -191 -101 -14 -23 -59 -77 -99 -121 -95 -101 -119
-144 -133 -235 -6 -41 -15 -80 -20 -86 -5 -6 -20 -47 -34 -90 -31 -98 -35
-237 -9 -361 16 -81 16 -82 -6 -145 -31 -86 -51 -174 -51 -231 0 -61 -30 -240
-42 -255 -8 -10 -135 -12 -582 -10 l-571 2 -37 -25 c-20 -14 -42 -36 -49 -50
-9 -19 -12 -317 -14 -1178 -1 -633 -5 -1155 -8 -1159 -4 -3 -8 101 -8 233 -2
384 -2 390 -25 421 -12 16 -38 37 -60 48 -37 19 -62 20 -556 23 l-518 3 0 785
c0 870 4 817 -67 871 l-36 28 -361 3 c-199 2 -390 0 -426 -3 -59 -6 -69 -11
-102 -46 l-38 -40 0 -1189 c0 -813 3 -1196 11 -1212 5 -13 26 -34 46 -48 33
-23 49 -25 182 -32 80 -3 266 -7 414 -7 l267 -1 2 -192 c2 -281 4 -330 21
-379 8 -24 18 -73 21 -109 12 -114 54 -207 104 -229 60 -28 226 -3 277 42 37
32 53 130 37 229 -7 40 -14 84 -16 98 -2 14 -7 63 -10 110 -10 118 -14 150
-25 186 -9 32 -5 229 5 245 3 5 175 9 383 9 l377 0 41 43 c22 23 45 51 51 62
11 20 11 20 19 -1 4 -12 23 -38 42 -60 l34 -38 226 -9 c124 -4 389 -6 588 -4
392 5 386 6 440 -51 106 -110 114 -120 157 -210 14 -29 34 -65 45 -80 10 -15
30 -49 44 -75 65 -121 115 -183 223 -276 55 -47 85 -58 204 -71 120 -14 151
-25 235 -82 87 -60 132 -122 167 -231 55 -171 90 -233 185 -329 91 -91 125
-111 248 -143 139 -37 353 -28 500 20 215 70 397 -8 331 -141 -16 -32 -50
-205 -65 -326 -7 -68 -13 -83 -43 -116 -18 -20 -51 -78 -72 -127 -32 -76 -48
-100 -106 -155 -78 -75 -116 -131 -137 -204 -39 -130 -136 -276 -184 -276 -19
0 -87 -58 -212 -179 -65 -62 -147 -170 -147 -193 0 -8 -13 -33 -29 -55 -16
-22 -32 -55 -36 -74 -4 -19 -16 -46 -26 -61 -11 -14 -19 -31 -19 -37 0 -5 -6
-14 -13 -18 -13 -8 -59 -78 -64 -98 -20 -71 -25 -145 -15 -209 17 -117 0 -175
-76 -258 -34 -37 -142 -98 -174 -98 -7 0 -55 -21 -107 -47 -97 -50 -167 -104
-204 -158 -81 -119 -124 -188 -154 -250 -97 -200 -166 -268 -416 -411 -38 -21
-85 -49 -105 -61 -21 -12 -50 -29 -67 -39 -16 -9 -115 -73 -220 -143 -269
-178 -329 -204 -395 -166 -14 8 -35 14 -47 15 -12 0 -37 6 -55 14 -118 50
-223 85 -284 96 -64 11 -79 10 -168 -10 -53 -12 -106 -20 -117 -17 -21 6 -144
-18 -171 -33 -10 -6 -29 -10 -42 -10 -13 0 -32 -3 -41 -6 -26 -10 18 -36 49
-28 38 9 41 -14 3 -32 -31 -15 -35 -15 -70 5 -21 12 -41 21 -46 21 -9 0 -152
80 -161 90 -3 3 -16 11 -30 18 -65 34 -82 45 -106 77 -39 52 -83 74 -254 131
-37 12 -59 13 -125 4 -44 -6 -93 -15 -110 -20 -16 -5 -61 -14 -100 -20 -63
-10 -116 -21 -168 -37 -16 -4 -18 -1 -12 17 6 20 5 21 -17 9 -32 -17 -67 -16
-106 5 -19 10 -40 15 -47 12 -8 -3 -19 2 -25 10 -7 8 -18 14 -25 14 -7 0 -18
7 -25 15 -7 8 -16 12 -21 9 -5 -3 -12 2 -15 10 -4 9 -14 14 -27 12 -12 -3 -24
-5 -27 -5 -2 -1 1 -6 8 -13 23 -23 12 -29 -14 -9 -15 12 -35 21 -45 21 -9 0
-30 13 -45 29 -15 16 -33 27 -40 24 -6 -2 -15 0 -19 6 -3 6 -17 11 -31 11 -15
0 -24 6 -24 15 0 8 -6 16 -12 17 -7 0 -17 2 -23 3 -12 2 -85 71 -85 80 0 13
-26 31 -70 49 -25 11 -64 28 -87 38 -23 10 -49 18 -57 18 -8 0 -17 4 -20 9 -3
4 -40 14 -83 21 -62 11 -94 11 -162 1 -192 -27 -384 -78 -541 -145 -46 -20
-89 -36 -95 -36 -5 0 -22 -6 -37 -14 -15 -8 -40 -17 -57 -21 -17 -4 -31 -11
-31 -17 0 -7 -15 -8 -42 -4 -24 4 -70 9 -103 11 -95 5 -179 16 -190 25 -5 4
-30 11 -55 15 -50 7 -112 26 -120 36 -3 4 -25 14 -50 22 -25 9 -67 28 -94 42
-27 14 -57 25 -66 25 -9 0 -20 4 -25 9 -6 6 -53 24 -105 42 -164 55 -323 50
-585 -20 -44 -12 -85 -28 -92 -37 -6 -9 -16 -13 -21 -10 -13 8 -74 -13 -87
-29 -6 -7 -33 -23 -60 -35 -28 -12 -73 -32 -101 -46 -28 -13 -65 -24 -82 -24
-17 0 -37 -6 -44 -12 -7 -7 -22 -15 -33 -16 -11 -2 -29 -12 -41 -23 -14 -13
-27 -17 -40 -12 -17 6 -17 8 6 14 22 6 23 7 4 8 -12 1 -27 -6 -34 -14 -9 -11
-22 -14 -42 -10 -17 4 -35 2 -43 -5 -9 -7 -26 -9 -41 -6 -14 4 -31 3 -37 -2
-18 -15 -87 -9 -98 8 -8 13 -11 13 -23 -2 -15 -21 -52 -24 -59 -5 -3 9 -8 9
-21 -2 -12 -10 -40 -15 -87 -14 -41 1 -69 -3 -69 -9 0 -6 -6 -6 -15 2 -8 6
-20 10 -27 7 -8 -3 -5 -6 7 -6 14 -1 16 -4 8 -12 -6 -6 -42 -11 -79 -12 -76
-1 -156 22 -212 59 -19 13 -38 22 -42 19 -4 -3 -11 2 -14 10 -4 12 -10 13 -25
6 -15 -8 -24 -5 -45 14 -15 13 -33 22 -41 19 -9 -4 -15 0 -15 10 0 11 -9 16
-30 16 -16 0 -30 3 -30 8 0 4 -10 8 -22 9 -56 6 -75 10 -98 23 -14 8 -29 13
-34 12 -4 -2 -14 2 -21 8 -8 6 -29 12 -47 12 -18 0 -38 5 -45 10 -6 5 -17 8
-25 7 -7 -1 -26 3 -41 9 -16 7 -32 12 -36 12 -4 0 -26 9 -49 20 -22 11 -47 20
-55 20 -7 0 -17 4 -23 10 -5 5 -26 11 -46 12 -20 2 -34 6 -31 11 2 4 -6 7 -19
7 -13 0 -30 4 -38 10 -12 8 -12 10 3 16 14 5 15 9 6 20 -6 8 -19 14 -28 15
-10 0 -12 2 -3 6 8 3 0 13 -20 28 -30 20 -35 21 -56 8 -19 -12 -23 -12 -28 1
-3 8 -3 20 1 26 3 5 2 10 -3 10 -12 0 -45 50 -45 66 0 7 -6 10 -13 7 -16 -6
-66 26 -58 38 7 11 -21 51 -29 42 -10 -10 -8 -25 2 -18 13 7 21 -8 12 -23 -5
-8 -16 2 -35 29 -28 43 -28 76 0 65 13 -5 12 -1 -3 24 -9 17 -23 30 -30 30
-16 0 -17 -12 -1 -28 6 -6 9 -15 5 -18 -4 -4 -21 8 -39 26 -27 26 -29 31 -12
26 12 -4 31 -3 44 2 20 7 21 10 7 15 -10 4 -17 2 -17 -3 0 -6 -5 -10 -11 -10
-6 0 -8 8 -5 18 4 10 -1 27 -9 38 -15 18 -16 17 -9 -15 l6 -33 -33 7 c-19 4
-34 8 -34 9 -15 39 -27 55 -40 50 -8 -3 -15 -1 -15 5 0 6 5 11 10 11 6 0 10 7
10 15 0 18 -26 20 -33 3 -3 -7 -6 -3 -6 9 -1 12 5 24 12 27 6 3 0 3 -15 0 -23
-5 -28 -3 -28 14 0 30 -22 73 -34 69 -14 -5 -59 17 -75 37 -8 9 -22 16 -32 16
-12 0 -16 5 -13 15 4 8 -1 17 -10 21 -16 6 -23 44 -8 44 5 0 19 -11 32 -25 13
-14 27 -25 31 -25 11 0 55 -42 62 -60 4 -12 6 -11 6 3 1 10 6 15 11 12 6 -3
10 -1 10 4 0 6 -7 11 -15 11 -8 0 -20 10 -26 23 -15 27 -30 38 -46 32 -7 -2
-10 2 -7 9 3 7 -7 18 -21 26 -16 8 -25 22 -25 37 0 31 18 30 26 -2 5 -20 14
-26 44 -31 22 -4 41 -13 44 -21 3 -8 10 -11 16 -8 13 8 -1 25 -63 80 -15 14
-25 25 -20 25 4 0 -3 7 -15 16 -12 8 -42 17 -65 18 -52 4 -87 21 -87 42 0 23
-39 74 -56 74 -8 0 -14 7 -14 15 0 8 -18 32 -40 54 -26 25 -35 41 -27 44 6 3
1 6 -12 6 -17 1 -21 5 -17 17 4 12 1 14 -14 9 -14 -4 -20 -2 -20 9 0 8 8 17
18 20 9 3 -3 4 -28 1 -40 -3 -43 -2 -26 10 11 8 16 21 13 30 -8 19 -37 20 -37
1 0 -7 -6 -19 -14 -25 -11 -9 -18 -6 -35 18 -21 29 -29 67 -12 56 5 -3 12 -1
15 4 7 11 -22 23 -36 15 -12 -8 -48 30 -48 51 0 9 -6 15 -12 12 -7 -2 -11 -15
-10 -28 3 -20 0 -18 -22 14 -28 40 -32 57 -16 57 6 0 1 13 -11 30 -19 25 -24
27 -33 14 -10 -13 -14 -13 -30 5 -13 14 -15 21 -6 21 10 0 10 3 1 14 -10 11
-8 16 6 24 17 10 17 11 -1 31 -15 16 -17 29 -12 61 6 38 5 41 -13 35 -24 -7
-37 11 -21 30 7 8 9 16 4 16 -5 1 -15 2 -23 3 -15 1 -34 53 -25 67 2 4 -4 22
-15 39 -14 24 -20 28 -24 16 -13 -32 -30 -17 -24 22 3 20 3 31 0 25 -6 -16
-33 -17 -33 -2 0 6 -6 17 -12 24 -23 26 -34 40 -36 47 -10 33 -15 47 -28 71
-8 15 -12 32 -9 37 3 6 2 10 -3 10 -8 0 -72 153 -72 172 0 3 -18 36 -40 73
-23 36 -45 76 -51 88 -10 23 -51 96 -77 137 -9 14 -27 48 -40 75 -13 28 -27
57 -32 66 -5 9 -16 56 -25 105 -9 49 -20 103 -25 120 -6 17 -10 38 -10 46 0 9
-6 23 -12 30 -18 18 -38 78 -27 78 4 0 6 7 2 16 -3 9 -13 14 -24 11 -13 -4
-19 1 -20 14 -3 39 -18 79 -30 79 -5 0 -9 6 -8 13 2 20 -13 57 -23 57 -6 0 -8
9 -5 21 3 12 0 22 -8 26 -8 2 -17 13 -20 24 -4 10 -14 19 -24 19 -10 0 -25 7
-32 16 -16 19 -69 153 -69 174 0 8 -6 27 -14 41 -7 14 -16 37 -19 51 -4 15
-14 33 -22 42 -9 8 -16 33 -18 55 -1 23 -6 41 -10 41 -4 0 -7 19 -6 43 2 54
-11 159 -22 173 -13 17 -48 122 -42 127 2 3 -2 15 -9 27 -11 18 -11 23 0 27 8
3 10 9 4 16 -5 7 -12 26 -16 42 -8 36 -43 110 -67 145 -18 27 -34 107 -44 230
-4 41 -12 93 -17 115 -6 22 -12 65 -13 95 -2 30 -6 66 -9 80 -4 14 -9 111 -11
215 -2 105 -7 231 -10 280 -3 50 -8 137 -11 195 -10 218 -16 295 -31 390 -3
25 -7 79 -8 120 -1 41 -5 156 -9 255 -6 153 -5 187 9 228 13 40 16 98 16 356
l0 309 -25 49 c-24 47 -25 52 -21 239 3 175 18 352 46 529 7 39 12 86 13 105
3 54 16 101 42 150 13 25 25 68 28 95 8 75 24 166 35 205 6 19 11 49 11 66 0
29 34 122 49 134 3 3 23 39 43 80 36 73 52 113 119 290 17 47 37 99 44 115 8
17 24 57 37 91 13 33 42 91 64 128 21 37 51 90 65 116 101 187 216 313 473
518 234 186 392 285 726 452 102 50 192 97 200 104 8 6 31 20 50 31 19 10 57
36 85 57 27 21 54 38 59 38 5 0 17 6 25 14 23 20 285 150 356 177 33 12 72 30
87 40 14 11 31 19 37 19 14 0 240 111 272 133 11 9 57 48 101 89 159 144 277
213 412 239 104 20 215 -16 365 -118 121 -83 190 -115 316 -148 161 -42 289
-32 490 40 119 42 138 46 220 45 53 0 125 -8 175 -20 202 -47 250 -55 271 -42
34 21 266 -29 350 -75 47 -27 96 -43 144 -49 53 -6 176 -44 195 -60 32 -26
147 -74 215 -88 135 -29 730 -47 825 -25 25 5 88 32 140 58 117 60 448 170
459 153 10 -17 457 134 594 202 255 124 396 190 457 213 65 25 323 106 370
116 50 11 433 -12 480 -29 130 -46 468 -96 600 -87 41 3 116 6 165 7 84 3 97
6 175 45 47 24 90 47 96 52 6 5 41 20 78 34 128 48 228 33 440 -66 83 -39 157
-73 164 -76 9 -4 12 1 10 13 -2 12 3 19 12 19 9 0 15 -9 15 -23 1 -34 28 -51
256 -152 349 -156 576 -273 725 -372 174 -117 285 -178 322 -178 61 0 88 -18
121 -80 37 -69 65 -189 55 -234 -19 -87 -108 -203 -191 -249 -30 -16 -80 -31
-124 -37 -41 -6 -100 -15 -132 -20 -34 -5 -96 -28 -150 -55 -190 -94 -388
-272 -592 -530 -22 -27 -46 -57 -55 -66 -134 -142 -250 -292 -237 -305 8 -9
441 434 483 494 19 27 241 214 295 248 195 123 259 149 466 193 57 12 125 31
152 43 55 22 66 39 137 211 34 83 36 93 35 198 0 75 3 109 10 107 27 -9 218
-187 344 -322 77 -82 163 -167 190 -188 75 -58 125 -110 131 -135 3 -12 -1
-36 -9 -52 -15 -30 -8 -49 13 -36 15 10 40 74 40 104 -1 46 -85 181 -225 357
-98 123 -417 452 -527 542 -77 63 -174 128 -480 325 -32 20 -62 37 -67 37 -5
0 -11 7 -15 15 -3 8 -10 15 -15 15 -6 0 -52 25 -103 55 -103 61 -164 86 -418
170 -188 62 -233 78 -295 106 -22 10 -65 25 -95 35 -30 9 -59 20 -65 25 -5 4
-46 15 -89 24 -44 9 -82 17 -85 19 -22 14 -313 46 -441 49 -135 4 -161 2 -205
-15z m-6643 -142 c-2 -14 8 -16 70 -16 49 0 83 6 103 17 39 21 160 21 185 -2
13 -12 44 -15 146 -15 138 0 241 -18 584 -105 276 -70 378 -103 845 -280 338
-128 761 -272 895 -305 120 -30 119 -29 90 -45 -48 -27 -245 -12 -415 31 -55
14 -206 61 -335 105 -337 115 -423 138 -575 150 -148 11 -212 25 -340 71 -72
25 -104 32 -160 31 -83 -1 -282 -41 -417 -82 -152 -47 -193 -48 -333 -12 -161
42 -225 74 -318 159 -112 102 -146 116 -290 120 -172 5 -240 -12 -353 -89 -49
-34 -107 -76 -130 -94 -90 -74 -219 -153 -421 -256 -117 -60 -221 -109 -230
-109 -9 0 -24 -6 -32 -14 -32 -27 -183 -98 -209 -98 -41 1 -103 -18 -97 -29
14 -22 -11 -53 -82 -99 -41 -28 -79 -47 -85 -44 -5 3 -30 -12 -56 -33 -47 -40
-105 -73 -127 -73 -6 0 -27 -12 -46 -26 -45 -35 -119 -66 -137 -59 -16 6 -52
-14 -92 -50 -14 -13 -48 -36 -76 -52 -58 -32 -77 -44 -199 -133 -184 -133
-254 -191 -358 -296 -59 -59 -110 -104 -114 -100 -9 8 25 76 69 138 18 26 50
72 71 102 56 80 361 384 647 645 25 22 97 77 160 121 63 43 134 97 158 120 23
22 47 40 52 40 14 0 82 39 106 61 11 10 25 19 31 19 6 0 42 18 81 40 38 22 72
40 76 40 4 0 26 13 49 28 23 16 83 49 132 74 50 24 99 50 110 56 11 6 58 25
103 42 46 17 91 35 100 41 40 23 235 89 347 118 44 11 127 32 185 47 58 15
128 30 155 35 28 4 86 15 130 24 44 9 137 18 208 22 121 6 127 7 121 26 -4 14
-2 18 7 15 8 -3 13 -12 11 -22z m7704 -185 c165 -60 255 -98 487 -204 65 -30
83 -51 51 -64 -8 -3 -52 11 -97 31 -45 20 -87 36 -94 36 -7 0 -27 6 -45 14
-18 7 -71 28 -118 46 -47 18 -94 38 -105 45 -11 6 -52 24 -90 38 -53 20 -75
35 -88 57 -18 29 -17 30 1 30 10 0 54 -13 98 -29z m695 -307 c218 -119 419
-271 419 -318 0 -36 -40 -17 -152 71 -37 30 -139 100 -227 158 -88 57 -162
109 -166 115 -7 11 2 30 14 30 4 0 55 -25 112 -56z m984 -684 c3 -5 1 -10 -4
-10 -6 0 -11 5 -11 10 0 6 2 10 4 10 3 0 8 -4 11 -10z m161 -167 c72 -78 68
-85 -6 -11 -33 32 -60 61 -60 63 0 14 18 -1 66 -52z m-13461 -2441 c-2 -47 -7
-156 -10 -241 -5 -137 -31 -423 -41 -459 -3 -9 -21 -12 -61 -10 l-58 3 -4 40
c-1 22 4 92 12 155 9 63 21 161 27 217 6 56 18 128 26 160 8 32 22 96 30 142
9 49 23 96 36 113 l21 30 13 -32 c10 -22 12 -59 9 -118z m11590 -129 c19 -28
22 -97 6 -116 -6 -8 -23 -12 -40 -9 -22 3 -32 12 -40 35 -33 93 26 164 74 90z
m-11588 -983 c2 -151 -1 -261 -7 -270 -8 -13 -81 -15 -552 -15 l-543 0 -3
-197 -2 -198 475 0 475 0 0 -260 0 -260 -475 0 -475 0 0 -410 0 -410 -365 0
-365 0 0 1140 0 1140 918 -2 917 -3 2 -255z m8621 -587 l2 -843 585 0 585 0 0
-295 0 -295 -945 2 -945 3 0 1133 c0 622 0 1134 0 1137 0 3 161 4 358 3 l357
-3 3 -842z m3450 575 l2 -268 -112 -2 c-62 -2 -340 -3 -618 -3 l-505 0 -3
-105 c-2 -58 0 -129 3 -157 l6 -53 525 0 524 0 0 -260 0 -260 -530 0 -530 0 2
-172 3 -173 628 -3 627 -2 0 -275 0 -275 -995 0 -995 0 0 1133 c0 624 3 1137
7 1140 3 4 446 6 982 5 l976 -3 3 -267z m-12096 -494 c-2 -41 -6 -74 -8 -74
-2 0 -27 12 -55 27 l-51 26 -411 1 -412 1 -3 33 c-7 67 -39 63 475 61 l468 -2
-3 -73z m11203 67 c30 -7 9 -9 -80 -9 -75 0 -109 3 -90 8 41 10 121 11 170 1z
m684 -7 c2 -2 -133 -3 -300 -2 -167 0 -284 4 -259 8 45 8 551 2 559 -6z m126
-4 c8 -13 -5 -13 -25 0 -13 8 -13 10 2 10 9 0 20 -4 23 -10z m-834 -837 c23
-23 -3 -33 -86 -33 -85 0 -102 7 -91 37 5 13 20 15 87 11 44 -3 85 -10 90 -15z
m-2197 -950 c3 -43 9 -109 11 -148 7 -90 40 -339 60 -462 11 -66 -1 -111 -37
-133 -17 -10 -36 -17 -42 -15 -6 2 -23 6 -37 9 -34 7 -63 56 -85 139 -17 65
-18 74 -30 177 -13 115 -8 478 6 495 9 11 32 15 80 15 l67 0 7 -77z m2634 3
c22 -45 36 -94 42 -144 15 -113 -12 -122 -70 -24 -44 73 -43 72 -117 150 -35
36 -63 72 -63 80 0 10 20 12 87 10 l87 -3 34 -69z m1413 -889 c20 -76 59 -135
122 -187 65 -53 158 -102 217 -115 19 -4 58 -19 85 -33 40 -20 72 -26 160 -32
61 -4 122 -12 137 -18 35 -14 51 -44 39 -74 -21 -57 -53 -59 -176 -14 -64 24
-79 26 -175 21 -102 -6 -234 -24 -315 -45 -52 -13 -148 -13 -216 0 -72 14
-141 49 -214 109 -101 83 -115 98 -115 125 0 35 21 33 73 -4 54 -38 225 -91
295 -91 60 0 75 9 103 63 25 49 17 104 -22 158 -16 22 -29 43 -29 48 0 4 -9
13 -20 19 -48 31 -59 111 -17 131 29 13 54 -9 68 -61z m989 -525 c39 -29 36
-71 -14 -222 -86 -256 -91 -270 -312 -771 -18 -42 -44 -105 -57 -140 -27 -71
-93 -206 -112 -229 -15 -18 -36 -58 -114 -219 -34 -67 -70 -136 -81 -151 -11
-15 -20 -33 -20 -38 0 -14 -39 -82 -62 -108 -10 -11 -30 -43 -45 -72 -16 -28
-47 -82 -70 -119 -59 -97 -486 -735 -544 -814 -27 -37 -49 -71 -49 -76 0 -5
-18 -28 -40 -52 -22 -24 -78 -93 -125 -155 -224 -294 -441 -542 -661 -753
-303 -290 -374 -343 -655 -483 -220 -109 -468 -193 -662 -224 -172 -28 -442
-15 -720 34 -193 35 -311 74 -1002 338 -44 16 -107 39 -140 50 -33 12 -114 42
-180 67 -170 65 -375 115 -698 170 -119 20 -185 25 -340 26 -106 1 -202 -1
-212 -4 -11 -4 -72 -13 -135 -22 -239 -31 -407 -66 -540 -109 -74 -25 -218
-71 -320 -102 -102 -31 -311 -105 -465 -164 -366 -140 -739 -261 -862 -278
-18 -2 -33 -7 -33 -11 0 -3 -12 -6 -27 -7 -16 0 -113 -6 -218 -13 -263 -19
-366 -11 -541 38 -195 55 -449 172 -623 285 -74 48 -372 295 -441 366 -3 3
-48 39 -100 79 -97 77 -135 114 -234 236 -83 101 -236 306 -236 316 0 15 25
10 117 -21 76 -26 95 -37 138 -82 64 -68 133 -151 170 -206 16 -24 46 -58 66
-75 43 -38 195 -104 265 -116 27 -5 78 -14 114 -21 36 -6 102 -18 147 -26 83
-15 214 -67 261 -104 19 -16 40 -20 99 -20 43 0 85 -6 101 -14 37 -19 78 -12
255 38 193 55 227 60 342 46 92 -11 95 -11 180 19 107 37 157 66 243 140 90
77 140 110 251 166 139 69 276 99 456 99 171 0 200 -7 425 -114 277 -131 331
-130 706 5 131 48 266 98 299 112 33 13 114 35 180 49 66 14 151 35 188 46 59
18 76 19 124 9 31 -6 70 -11 88 -11 48 0 119 -41 245 -141 124 -98 191 -137
285 -163 33 -10 107 -34 165 -55 126 -46 217 -58 276 -38 22 8 74 20 114 26
41 7 88 21 106 31 25 16 49 20 128 20 115 0 115 0 329 -141 234 -156 372 -219
477 -219 45 0 87 10 169 40 137 50 188 60 318 60 97 0 113 -3 239 -45 202 -69
317 -77 403 -29 25 14 98 63 161 110 99 74 313 214 326 214 2 0 64 36 138 80
278 165 370 264 520 556 49 95 92 165 114 187 23 21 83 55 155 87 66 28 147
68 180 87 77 44 192 162 223 228 23 47 23 57 18 185 -7 153 1 187 71 290 20
30 66 113 102 184 38 75 82 147 107 175 24 25 48 56 55 68 6 13 35 39 64 58
213 143 229 163 302 377 44 127 55 144 126 198 86 64 112 116 129 253 6 49 15
77 35 103 55 72 73 138 72 259 -1 86 2 117 16 141 9 18 27 65 41 105 23 69 27
76 68 95 24 12 50 30 58 39 18 22 103 14 140 -13z m-13487 -134 c4 -12 4 -24
1 -27 -6 -7 -24 20 -24 37 0 21 17 13 23 -10z m254 -110 c-3 -8 -6 -5 -6 6 -1
11 2 17 5 13 3 -3 4 -12 1 -19z m540 -1210 c-3 -8 -6 -5 -6 6 -1 11 2 17 5 13
3 -3 4 -12 1 -19z m153 -269 c0 -5 -4 -9 -10 -9 -5 0 -10 7 -10 16 0 8 5 12
10 9 6 -3 10 -10 10 -16z m70 -129 c0 -5 -5 -10 -11 -10 -5 0 -7 5 -4 10 3 6
8 10 11 10 2 0 4 -4 4 -10z m226 -255 c9 -8 11 -15 6 -15 -5 0 -15 7 -22 15
-7 8 -9 15 -6 15 4 0 14 -7 22 -15z m4 -41 c0 -14 -3 -14 -15 -4 -8 7 -15 14
-15 16 0 2 7 4 15 4 8 0 15 -7 15 -16z m50 -5 c0 -5 -4 -9 -10 -9 -5 0 -10 7
-10 16 0 8 5 12 10 9 6 -3 10 -10 10 -16z m30 -18 c0 -6 -4 -13 -10 -16 -5 -3
-10 1 -10 9 0 9 5 16 10 16 6 0 10 -4 10 -9z m240 -205 c0 -11 -19 -15 -25 -6
-3 5 1 10 9 10 9 0 16 -2 16 -4z m12 -48 c-9 -9 -15 -9 -24 0 -9 9 -7 12 12
12 19 0 21 -3 12 -12z m-26 -33 c20 -15 13 -18 -23 -9 -13 4 -23 10 -23 15 0
14 24 11 46 -6z m-178 -204 c16 -17 46 -54 66 -83 20 -29 61 -87 91 -128 76
-106 108 -209 56 -180 -34 18 -246 289 -278 354 -13 29 -14 38 -3 51 18 22 35
19 68 -14z m852 -521 c0 -5 -5 -10 -11 -10 -5 0 -7 5 -4 10 3 6 8 10 11 10 2
0 4 -4 4 -10z m70 -34 c0 -3 -4 -8 -10 -11 -5 -3 -10 -1 -10 4 0 6 5 11 10 11
6 0 10 -2 10 -4z m2830 -146 c0 -5 -4 -10 -9 -10 -6 0 -13 5 -16 10 -3 6 1 10
9 10 9 0 16 -4 16 -10z m-930 -1290 c0 -5 -10 -10 -22 -10 -19 0 -20 2 -8 10
19 13 30 13 30 0z"/>
<path d="M18699 5993 c-13 -15 -12 -15 9 -4 23 12 28 21 13 21 -5 0 -15 -7
-22 -17z"/>
<path d="M18615 5942 c-89 -51 -128 -80 -87 -65 19 8 122 74 122 79 0 6 -2 5
-35 -14z"/>
<path d="M17033 17690 c-32 -29 -37 -71 -17 -142 24 -86 115 -297 165 -381 49
-82 105 -242 159 -454 53 -204 59 -219 107 -232 62 -18 127 -14 156 9 28 22
47 74 47 128 0 63 -46 272 -90 412 -10 30 -25 81 -35 114 -9 32 -53 119 -96
193 -44 75 -95 166 -114 203 -18 37 -46 82 -61 100 -54 64 -177 92 -221 50z
m130 -79 c16 -14 45 -55 64 -91 20 -36 66 -117 104 -180 37 -63 77 -136 87
-161 61 -143 142 -459 142 -557 0 -62 -7 -72 -51 -72 -29 0 -45 35 -84 185
-59 226 -98 330 -199 531 -103 205 -112 225 -131 296 -24 89 4 109 68 49z"/>
<path d="M19035 17682 c-47 -23 -145 -123 -202 -207 -58 -86 -119 -212 -137
-282 -19 -71 -20 -183 -3 -233 15 -44 47 -60 124 -60 110 0 119 8 160 148 52
181 111 267 260 379 82 62 93 76 93 128 0 88 -61 136 -179 142 -60 3 -85 0
-116 -15z m185 -71 c48 -35 40 -56 -62 -155 -127 -123 -189 -216 -247 -370
-35 -92 -54 -116 -91 -116 -53 0 -65 20 -64 107 2 100 35 195 106 311 60 97
190 237 228 245 41 8 103 -2 130 -22z"/>
<path d="M12083 17403 c-30 -6 -72 -51 -93 -99 -29 -67 -89 -284 -101 -367
-14 -93 0 -190 31 -222 18 -18 33 -20 133 -20 l112 0 16 35 c10 19 23 62 29
95 19 91 35 148 80 278 59 175 53 270 -21 296 -31 11 -140 13 -186 4z"/>
<path d="M10139 17222 c-39 -20 -44 -23 -109 -80 -25 -21 -63 -51 -85 -67
-108 -78 -137 -120 -155 -228 -13 -78 -3 -121 31 -126 13 -1 36 -12 52 -23 15
-11 42 -20 60 -21 49 0 173 42 195 66 10 12 62 65 115 117 107 107 139 159
145 236 4 50 2 56 -30 88 -55 55 -152 72 -219 38z"/>
<path d="M15022 16989 c-55 -27 -84 -70 -90 -129 -7 -79 15 -111 105 -150 42
-19 110 -56 152 -83 124 -82 140 -87 219 -71 134 28 173 72 153 172 -16 78
-44 115 -136 176 -136 91 -158 99 -265 103 -81 3 -101 0 -138 -18z"/>
<path d="M20590 16981 c0 -5 9 -12 19 -16 23 -7 98 -72 91 -78 -3 -2 -35 -13
-72 -25 -36 -12 -81 -30 -100 -42 l-33 -20 145 1 c158 1 188 6 204 32 9 13 6
20 -12 32 -12 9 -22 24 -22 34 0 25 -16 37 -94 66 -67 25 -126 33 -126 16z"/>
<path d="M20382 16790 c-12 -10 -19 -21 -14 -24 11 -7 54 16 60 32 6 18 -20
14 -46 -8z"/>
<path d="M13260 16712 c-54 -24 -90 -78 -90 -135 0 -30 11 -46 91 -123 138
-135 194 -210 205 -274 9 -50 57 -226 71 -257 21 -52 53 -67 129 -60 41 3 72
11 83 22 27 23 34 78 20 139 -27 115 -113 355 -147 411 -50 83 -188 246 -225
268 -32 17 -107 22 -137 9z m98 -91 c88 -45 227 -230 272 -362 34 -101 48
-212 30 -234 -20 -24 -49 -18 -62 13 -6 15 -37 82 -69 149 -33 67 -59 125 -59
128 0 9 -36 53 -105 130 -87 96 -106 136 -85 175 13 25 31 25 78 1z"/>
<path d="M8680 16254 c-59 -22 -101 -47 -133 -80 -20 -21 -37 -43 -37 -48 0
-5 -6 -17 -14 -25 -15 -18 -65 -150 -95 -256 -32 -110 -51 -210 -65 -344 -11
-107 -11 -133 2 -184 13 -52 19 -61 49 -73 18 -8 57 -17 86 -20 105 -10 142
50 167 271 13 113 41 226 75 300 13 28 27 63 31 79 8 33 29 60 95 127 26 25
50 56 54 69 18 55 -18 140 -71 168 -23 12 -123 23 -144 16z m85 -109 c29 -28
30 -39 7 -81 -85 -157 -135 -277 -187 -449 -64 -213 -79 -245 -116 -245 -30 0
-44 70 -43 215 1 129 1 131 52 279 52 151 78 198 141 251 68 59 110 67 146 30z"/>
<path d="M18563 16057 c-13 -13 -23 -25 -23 -28 0 -3 -22 -28 -48 -55 -56 -59
-93 -121 -123 -210 -18 -53 -20 -75 -14 -127 4 -34 8 -72 9 -84 2 -41 12 -24
24 40 21 116 140 413 169 424 7 3 13 10 13 16 0 6 7 19 17 29 23 26 3 21 -24
-5z"/>
<path d="M17186 15954 c-44 -24 -86 -65 -86 -85 0 -35 127 -430 175 -544 9
-22 23 -53 30 -70 7 -16 24 -61 39 -100 31 -79 37 -89 84 -128 80 -65 231 -13
232 80 0 58 -28 148 -87 273 -14 30 -40 89 -58 130 -34 79 -71 160 -111 247
-13 28 -24 56 -24 61 0 11 -57 100 -83 130 -24 26 -68 29 -111 6z m80 -126
c41 -44 66 -87 104 -183 17 -44 39 -98 48 -120 8 -22 24 -58 33 -81 24 -54 56
-175 65 -243 l7 -54 -29 7 c-29 8 -44 22 -44 43 0 6 -4 13 -9 15 -10 3 -153
278 -183 353 -19 46 -32 93 -60 219 -10 44 -9 50 7 62 26 19 27 18 61 -18z"/>
<path d="M9820 15814 c-35 -24 -82 -49 -104 -55 -50 -14 -94 -46 -114 -84 -19
-37 -42 -121 -42 -155 0 -14 -11 -47 -25 -75 -13 -27 -25 -57 -25 -65 0 -15
-22 -55 -95 -180 -136 -231 -207 -461 -214 -693 -2 -88 0 -99 24 -140 29 -51
62 -68 132 -70 99 -3 164 62 178 178 4 30 11 58 15 60 5 3 12 31 15 63 4 31
18 78 31 104 26 52 71 165 84 213 5 17 20 62 35 100 29 80 79 311 70 326 -4 5
-15 0 -25 -13 -17 -22 -140 -261 -140 -272 0 -3 -11 -29 -24 -58 -64 -142
-108 -288 -146 -478 -23 -117 -78 -155 -138 -96 -50 48 -37 205 28 361 4 11
19 47 31 80 13 33 29 69 36 80 22 37 131 352 148 431 12 53 46 146 71 193 39
75 82 118 129 127 33 6 41 4 58 -17 17 -21 18 -33 12 -94 -4 -38 -8 -88 -9
-110 -1 -25 -8 -46 -20 -57 -14 -14 -15 -18 -5 -18 64 0 181 330 155 434 -10
39 -49 33 -126 -20z"/>
<path d="M10941 15307 c-35 -17 -43 -26 -56 -70 -21 -72 -19 -97 13 -148 53
-82 183 -146 357 -176 l30 -5 -30 27 c-16 15 -41 34 -55 43 -94 59 -192 138
-210 168 -21 33 -21 36 -5 54 19 21 48 19 95 -6 59 -32 281 -134 291 -134 15
0 74 -42 126 -90 80 -76 118 -196 79 -255 -18 -27 -31 -30 -71 -15 -27 10 -64
47 -65 63 0 18 -55 87 -69 87 -10 0 -11 -3 -2 -14 7 -8 14 -45 16 -83 7 -121
53 -173 150 -173 69 0 106 18 135 67 18 31 21 48 17 94 -5 54 -41 174 -59 194
-4 5 -8 15 -8 22 0 27 -50 89 -87 108 -21 10 -44 24 -52 29 -7 6 -48 23 -90
37 -176 62 -191 70 -250 126 -19 18 -40 33 -47 33 -7 0 -14 5 -16 11 -2 6 -25
15 -50 19 -35 5 -55 2 -87 -13z"/>
<path d="M14032 15261 c-17 -3 -59 -28 -93 -56 -33 -27 -77 -64 -97 -80 -20
-17 -53 -38 -72 -47 -212 -99 -241 -120 -405 -301 -88 -97 -91 -104 -76 -170
11 -48 15 -54 60 -76 48 -23 49 -23 102 -7 61 20 90 43 173 141 32 39 68 76
80 84 12 8 23 18 26 21 5 6 96 51 255 126 95 44 163 92 226 158 42 44 48 136
11 168 -49 42 -110 54 -190 39z m96 -73 c19 -19 14 -82 -8 -111 -11 -13 -59
-54 -107 -90 -83 -61 -106 -76 -213 -135 -25 -14 -53 -33 -62 -41 -26 -24 -41
-35 -69 -49 -15 -8 -39 -26 -55 -40 -137 -128 -186 -155 -230 -131 -33 17 -31
52 6 116 50 87 132 165 267 255 71 47 139 89 152 93 22 7 59 26 136 69 11 6
34 21 52 33 57 42 108 54 131 31z"/>
<path d="M15660 15241 c-40 -20 -114 -118 -130 -171 -6 -19 -17 -51 -25 -70
-31 -82 -45 -150 -46 -231 -2 -91 14 -140 48 -154 26 -10 156 -16 169 -7 23
14 62 109 72 172 5 36 22 92 37 125 15 33 31 69 35 80 47 115 38 217 -22 259
-30 21 -96 20 -138 -3z m76 -136 c8 -33 1 -65 -43 -205 -39 -125 -54 -150 -88
-150 -43 0 -65 65 -43 127 37 109 128 251 160 253 4 0 10 -11 14 -25z"/>
<path d="M18335 15238 c-13 -38 -21 -99 -19 -142 2 -27 -4 -74 -13 -105 -10
-31 -18 -91 -19 -133 -3 -93 -46 -219 -85 -248 -4 -3 -18 -37 -32 -75 -14 -39
-42 -112 -61 -164 -37 -97 -43 -139 -26 -172 12 -21 32 -26 29 -6 -2 12 2 32
22 112 23 89 44 146 99 260 56 117 86 202 76 212 -2 3 1 21 8 41 7 21 18 75
25 122 6 47 16 115 21 153 11 78 13 119 4 141 -7 19 -23 21 -29 4z"/>
<path d="M28228 14785 c10 -162 9 -1361 -1 -1457 -7 -74 -7 -76 13 -71 13 3
20 0 20 -8 0 -9 3 -10 10 -3 7 7 9 285 8 815 -3 762 -4 804 -21 801 -10 -2
-21 6 -27 20 -6 15 -7 -18 -2 -97z"/>
<path d="M24 14245 c0 -77 2 -107 3 -67 2 40 2 103 0 140 -2 37 -3 4 -3 -73z"/>
<path d="M20440 14125 c-323 -39 -571 -153 -723 -333 -129 -153 -175 -276
-184 -484 -5 -108 -2 -141 16 -221 12 -52 37 -126 55 -164 40 -83 132 -194
222 -265 35 -28 62 -53 60 -56 -3 -2 -64 -3 -137 -3 -116 1 -137 -1 -176 -20
-63 -31 -83 -67 -83 -155 0 -163 51 -353 130 -480 76 -125 180 -218 321 -287
218 -108 372 -138 737 -144 239 -5 274 -3 390 17 265 46 441 129 587 275 100
99 161 203 205 349 47 153 51 338 11 481 -49 172 -175 335 -328 424 -40 23
-75 46 -78 51 -4 6 43 10 130 10 156 0 194 11 219 63 38 81 27 244 -26 380
-78 204 -261 383 -481 473 -222 90 -564 125 -867 89z m570 -156 c184 -30 295
-74 412 -160 173 -129 263 -287 270 -479 l3 -65 -345 0 -345 0 3 32 c4 36 -25
98 -60 129 -67 62 -169 87 -294 74 -111 -12 -161 -31 -204 -75 -30 -31 -32
-38 -28 -80 12 -104 111 -150 483 -224 217 -43 385 -95 505 -153 86 -43 119
-66 181 -128 86 -85 118 -143 150 -270 37 -147 12 -352 -62 -497 -144 -284
-447 -423 -925 -423 -453 0 -725 76 -912 255 -71 67 -91 94 -127 170 -53 109
-75 194 -75 298 l0 77 315 2 c173 1 325 2 337 2 18 1 23 -9 38 -71 24 -104 55
-145 140 -186 41 -20 60 -22 220 -22 201 0 231 7 284 66 98 108 2 208 -254
264 -453 97 -528 119 -685 195 -169 81 -278 201 -336 370 -33 95 -34 304 -2
405 62 195 214 347 433 433 214 84 589 110 880 61z m-228 -619 c28 0 46 -7 65
-26 40 -40 18 -51 -59 -31 -35 9 -81 19 -103 23 -96 16 -97 50 -2 40 33 -3 77
-6 99 -6z m-157 -976 c66 -14 135 -28 153 -31 18 -3 35 -9 38 -14 9 -16 -46
-21 -162 -16 -123 5 -148 14 -182 65 -14 21 -13 22 10 22 13 0 77 -12 143 -26z"/>
<path d="M7565 14095 c-61 -22 -91 -64 -99 -138 -3 -34 -5 -574 -3 -1199 l2
-1136 24 -26 c55 -59 59 -59 489 -57 217 1 404 6 415 11 36 13 78 65 88 106 4
22 9 196 9 387 0 209 4 346 9 342 13 -8 57 -88 96 -175 89 -200 295 -609 323
-637 l30 -33 194 -2 c173 -2 443 -1 663 1 l81 1 48 48 c46 45 48 49 44 92 -4
41 -45 133 -108 245 -23 40 -67 124 -175 330 -32 61 -80 151 -106 201 -27 50
-49 96 -49 103 0 7 15 24 33 39 174 145 261 269 311 450 34 120 37 302 6 423
-47 184 -153 345 -308 467 -60 48 -209 118 -302 143 -85 23 -88 23 -880 26
-670 2 -801 0 -835 -12z m1665 -159 c158 -41 342 -161 416 -273 103 -156 141
-325 110 -500 -20 -118 -46 -185 -105 -275 -57 -88 -128 -150 -236 -208 -44
-24 -81 -44 -83 -46 -2 -1 16 -37 41 -81 24 -43 75 -136 112 -208 37 -71 86
-164 108 -205 117 -220 227 -438 227 -448 0 -9 -101 -12 -389 -12 -214 0 -397
3 -406 6 -9 4 -32 39 -50 78 -18 39 -102 213 -187 386 -86 173 -158 325 -162
337 -8 27 -25 29 -173 25 l-113 -3 0 -415 0 -414 -362 2 -363 3 -3 1125 c-1
619 0 1131 3 1138 4 11 142 13 777 9 685 -3 780 -6 838 -21z"/>
<path d="M8340 13230 l0 -210 260 0 c287 0 299 2 359 61 45 44 61 86 61 154 0
86 -40 150 -117 189 -27 14 -73 16 -298 16 l-265 0 0 -210z m516 49 c18 -19
22 -85 5 -102 -7 -7 -75 -11 -188 -11 l-178 -1 -3 54 c-2 29 -1 59 1 65 3 8
56 12 175 11 145 0 174 -3 188 -16z"/>
<path d="M10119 14095 c-25 -8 -54 -24 -65 -36 -18 -21 -19 -53 -22 -1218 -2
-1153 -2 -1197 17 -1231 10 -19 33 -44 51 -54 32 -19 66 -20 881 -24 719 -4
849 -7 849 -19 0 -7 -19 -22 -43 -32 -80 -35 -129 -124 -152 -282 -8 -57 -22
-124 -30 -149 -43 -136 -45 -157 -45 -491 0 -397 13 -536 56 -600 34 -50 132
-109 182 -109 43 0 105 32 131 69 18 25 22 46 23 123 1 52 -2 100 -7 108 -32
52 -27 557 7 663 5 18 14 52 19 77 14 65 17 81 29 125 6 22 13 51 16 65 3 13
9 29 13 35 24 30 40 125 38 224 -2 95 -5 105 -25 120 -53 37 -77 60 -70 66 4
4 63 11 131 14 106 6 127 10 155 30 18 12 37 32 44 44 8 16 11 113 10 334 -1
341 -1 340 -62 398 l-31 30 -587 5 -587 5 -3 23 -3 22 475 0 c339 0 483 3 503
12 15 6 31 12 35 12 4 1 13 7 20 15 10 11 10 12 0 7 -7 -4 -1 9 13 30 l25 37
0 288 c0 274 -1 291 -21 332 -25 52 -58 74 -119 81 -25 2 -242 5 -482 5 -263
1 -438 5 -438 10 0 6 216 10 544 10 300 0 564 3 588 6 37 6 47 13 77 56 l34
50 0 304 c-1 336 -1 337 -66 389 l-39 31 -1011 2 c-850 1 -1019 0 -1058 -12z
m2019 -407 l-3 -273 -601 -1 c-331 -1 -609 -4 -618 -7 -13 -5 -16 -25 -16
-125 0 -66 3 -134 6 -151 l7 -31 523 0 524 0 0 -260 0 -260 -524 0 c-521 0
-525 0 -531 -21 -7 -21 -4 -282 3 -311 4 -17 42 -18 628 -18 l624 0 0 -275 0
-275 -992 2 -993 3 -3 1125 c-1 619 0 1131 3 1138 3 9 210 12 985 12 l980 0
-2 -272z m-210 -2320 c7 -7 12 -28 12 -47 0 -34 -64 -305 -95 -401 -25 -79
-33 -199 -30 -465 2 -202 6 -273 19 -318 19 -69 20 -107 4 -142 -23 -52 -98
-40 -127 20 -41 86 -66 344 -55 580 14 301 117 726 189 777 16 12 70 9 83 -4z"/>
<path d="M12534 14099 c-53 -12 -89 -46 -103 -95 -8 -27 -11 -405 -11 -1207
l0 -1167 40 -44 40 -43 682 -6 c794 -7 1056 1 1168 33 74 21 194 79 253 123
86 63 175 165 220 252 60 115 79 189 84 326 5 115 3 137 -21 230 -33 126 -78
211 -162 305 -35 40 -64 74 -64 77 0 3 21 29 46 59 86 99 154 292 154 432 -1
86 -21 203 -47 272 -45 116 -169 260 -292 338 -74 48 -90 55 -211 93 l-85 27
-825 2 c-496 1 -842 -2 -866 -7z m1721 -158 c28 -7 91 -32 141 -56 77 -37 102
-56 163 -120 118 -127 159 -246 146 -419 -13 -169 -74 -295 -182 -377 -53 -40
-151 -88 -180 -89 -32 0 -7 -20 48 -39 189 -64 306 -188 354 -376 31 -123 16
-307 -36 -424 -79 -180 -281 -317 -518 -351 -37 -5 -401 -10 -843 -10 l-778 0
0 1141 0 1140 818 -4 c608 -3 830 -7 867 -16z"/>
<path d="M13298 13453 c-2 -5 -2 -92 0 -195 l4 -188 261 0 c245 0 263 1 305
21 97 47 130 172 75 279 -45 89 -49 90 -370 90 -149 0 -273 -3 -275 -7z m320
-166 c2 -10 1 -29 -2 -43 -6 -22 -11 -24 -75 -24 -74 0 -101 14 -101 50 0 30
29 40 105 37 59 -2 70 -5 73 -20z m200 -29 c3 -36 2 -38 -28 -38 -23 0 -33 6
-42 24 -17 38 -4 58 34 54 30 -3 33 -6 36 -40z"/>
<path d="M13315 12603 c-20 -4 -21 -9 -17 -191 3 -124 8 -189 16 -194 16 -11
524 -9 570 2 48 11 84 36 114 80 32 48 32 172 -1 221 -32 47 -79 76 -135 83
-49 5 -512 4 -547 -1z m565 -182 c0 -64 8 -62 -221 -61 l-209 1 0 45 0 44 215
0 215 0 0 -29z"/>
<path d="M16225 14103 c-30 -8 -44 -22 -71 -75 -29 -57 -30 -93 -4 -150 25
-55 36 -69 85 -98 50 -29 151 -126 171 -163 21 -40 36 -58 172 -207 18 -19 32
-40 32 -47 0 -19 56 -53 114 -68 47 -12 61 -12 104 0 54 16 70 31 99 90 28 57
21 114 -22 185 -19 32 -35 61 -35 65 0 8 -80 125 -96 140 -6 6 -37 45 -69 88
-33 43 -78 93 -102 110 -24 17 -43 33 -43 37 0 4 -33 23 -72 43 -89 44 -200
65 -263 50z"/>
<path d="M9563 11102 c-68 -37 -94 -108 -75 -201 7 -34 32 -56 32 -29 0 20 90
116 115 122 12 4 31 -3 50 -18 l30 -24 0 -109 c0 -59 -4 -144 -8 -188 -4 -44
-12 -156 -18 -250 -13 -231 -25 -356 -39 -386 -6 -13 -22 -29 -35 -36 -22 -10
-27 -8 -45 14 -10 13 -29 46 -40 71 -26 56 -64 81 -80 51 -8 -13 -6 -38 5 -84
22 -95 48 -140 97 -169 37 -21 50 -23 86 -17 50 10 89 42 100 85 5 17 7 166 6
331 -4 306 1 375 46 599 18 90 3 152 -49 213 -38 45 -120 56 -178 25z"/>
<path d="M14004 11061 c-78 -40 -106 -155 -105 -436 0 -248 12 -343 52 -432
23 -50 46 -66 117 -83 41 -10 66 -10 117 0 61 12 64 14 80 52 13 33 14 65 9
196 -4 87 -7 171 -8 187 0 64 15 252 23 287 10 43 -2 117 -24 151 -8 13 -33
38 -55 56 -54 43 -145 53 -206 22z"/>
<path d="M17426 10600 c-37 -12 -64 -37 -84 -80 -14 -30 -17 -87 -20 -379 -2
-189 -1 -355 3 -368 7 -30 85 -67 134 -64 44 2 99 28 111 52 6 10 19 54 29 99
17 68 20 120 21 324 0 134 3 254 6 267 2 13 2 46 -2 72 -5 43 -10 50 -45 67
-40 21 -103 25 -153 10z m91 -155 c15 -32 16 -59 6 -299 -12 -288 -18 -319
-65 -324 -51 -6 -59 24 -65 238 -7 229 6 346 45 391 32 39 58 37 79 -6z"/>
<path d="M18163 10115 c-47 -20 -63 -60 -63 -155 0 -100 16 -128 98 -169 70
-35 101 -65 132 -128 50 -101 134 -196 185 -209 14 -3 59 -1 102 4 65 9 82 15
101 37 44 52 27 200 -40 338 -37 77 -167 209 -223 227 -22 7 -45 17 -51 21
-23 19 -129 49 -168 49 -23 -1 -55 -7 -73 -15z"/>
<path d="M8825 9295 c-49 -28 -68 -71 -59 -131 7 -49 28 -69 111 -106 26 -11
95 -53 153 -91 248 -167 297 -198 327 -206 110 -31 190 77 141 190 -16 40 -29
52 -80 78 -54 29 -169 104 -313 206 -122 86 -205 104 -280 60z m193 -91 c127
-60 384 -249 403 -297 39 -93 -77 -72 -250 45 -116 78 -311 237 -311 253 0 18
28 34 58 35 13 0 58 -16 100 -36z"/>
<path d="M13730 9032 c-26 -12 -39 -28 -48 -57 -17 -52 -10 -84 39 -186 23
-46 67 -154 99 -239 32 -85 75 -192 94 -238 20 -46 40 -110 45 -142 5 -32 17
-72 25 -89 24 -45 82 -85 121 -84 41 1 122 55 135 89 18 47 -23 200 -134 494
-122 327 -141 369 -182 411 -57 58 -129 74 -194 41z m127 -108 c40 -45 174
-315 237 -474 46 -117 76 -234 76 -295 0 -53 -45 -76 -93 -49 -36 21 -326 826
-306 850 17 20 52 8 86 -32z"/>
<path d="M12385 8328 c-31 -17 -85 -70 -100 -98 -21 -40 -114 -378 -121 -441
-12 -106 54 -185 156 -183 77 1 123 30 146 92 27 76 85 224 104 267 33 74 40
108 40 192 0 76 -2 86 -25 109 -31 31 -121 74 -155 74 -14 -1 -34 -6 -45 -12z"/>
<path d="M8730 8305 c0 -8 7 -15 16 -15 14 0 14 3 4 15 -7 8 -14 15 -16 15 -2
0 -4 -7 -4 -15z"/>
<path d="M8796 8277 c3 -10 9 -15 12 -12 3 3 0 11 -7 18 -10 9 -11 8 -5 -6z"/>
<path d="M15986 8270 c-59 -18 -104 -80 -120 -163 -12 -63 -88 -195 -165 -287
-30 -35 -30 -36 -23 -124 l7 -89 35 -18 c107 -56 191 -27 322 109 117 121 132
160 132 342 1 150 -9 192 -53 214 -36 19 -101 26 -135 16z"/>
<path d="M8846 8194 c-3 -8 -1 -24 4 -36 7 -18 9 -19 9 -5 1 23 17 22 24 -2 3
-14 11 -18 26 -14 l22 6 -21 14 c-11 8 -20 20 -20 27 0 19 -37 27 -44 10z"/>
<path d="M8938 8053 c6 -2 18 -2 25 0 6 3 1 5 -13 5 -14 0 -19 -2 -12 -5z"/>
<path d="M10155 8053 c-34 -8 -74 -54 -91 -105 -21 -65 -10 -97 80 -219 39
-54 87 -121 106 -149 144 -212 205 -268 359 -330 94 -38 156 -46 209 -25 60
24 82 60 82 133 0 95 -12 116 -83 147 -95 42 -171 100 -219 167 -169 236 -246
324 -309 354 -48 24 -102 34 -134 27z m113 -109 c50 -25 134 -114 202 -214 67
-98 140 -173 231 -240 111 -80 124 -101 94 -157 -29 -52 -38 -57 -92 -44 -88
22 -194 82 -258 146 -89 89 -325 433 -325 475 0 20 49 60 73 60 13 0 46 -12
75 -26z"/>
<path d="M18824 7892 c-16 -9 -51 -32 -78 -50 -26 -19 -118 -68 -204 -110 -86
-42 -209 -106 -273 -143 -111 -65 -291 -159 -302 -159 -3 0 -34 -16 -67 -36
-58 -34 -62 -38 -56 -65 10 -50 58 -138 84 -155 41 -27 177 -15 272 24 72 29
456 213 648 310 114 58 192 132 192 183 0 48 -36 115 -93 170 -54 53 -74 58
-123 31z m95 -99 c17 -21 36 -53 42 -71 22 -68 -9 -89 -474 -322 -320 -160
-369 -180 -458 -180 -62 0 -74 8 -89 59 -16 55 -4 69 97 116 51 24 146 75 211
113 119 71 305 166 422 218 36 15 92 45 124 66 33 21 68 38 77 38 10 0 31 -17
48 -37z"/>
<path d="M17363 7569 c-46 -14 -90 -72 -104 -138 -34 -156 8 -612 69 -772 6
-14 22 -39 37 -57 25 -30 31 -32 91 -32 70 0 119 16 147 47 17 19 17 33 2 279
-29 480 -39 557 -78 618 -35 52 -100 75 -164 55z m111 -104 c28 -42 46 -159
62 -404 18 -268 15 -384 -9 -408 -21 -22 -92 -21 -117 2 -45 41 -87 202 -104
395 -17 211 6 389 56 425 36 24 93 20 112 -10z"/>
<path d="M9550 7450 c0 -5 5 -10 11 -10 5 0 7 5 4 10 -3 6 -8 10 -11 10 -2 0
-4 -4 -4 -10z"/>
<path d="M9599 7420 c-20 -13 -5 -22 21 -12 18 7 20 10 8 14 -8 4 -21 2 -29
-2z"/>
<path d="M9612 7376 c-18 -9 -22 -16 -17 -36 8 -29 13 -36 21 -27 4 4 1 13 -5
21 -10 11 -8 17 10 30 28 19 22 26 -9 12z"/>
<path d="M9635 7350 c3 -5 12 -10 20 -10 8 0 17 5 20 10 4 6 -5 10 -20 10 -15
0 -24 -4 -20 -10z"/>
<path d="M9638 7283 c7 -3 16 -2 19 1 4 3 -2 6 -13 5 -11 0 -14 -3 -6 -6z"/>
<path d="M15231 6568 c-1 -16 4 -28 9 -28 12 0 12 8 0 35 -8 18 -9 17 -9 -7z"/>
<path d="M14895 49 c-164 -12 -1268 -16 -1486 -6 l-176 8 4 -25 5 -26 960 0
c908 0 959 1 956 17 -1 10 1 24 5 31 9 14 -72 14 -268 1z"/>
</g>
</svg>
